<?xml version="1.0" encoding="UTF-8"?>
<!DOCTYPE svg PUBLIC "-//W3C//DTD SVG 1.1//EN" "http://www.w3.org/Graphics/SVG/1.1/DTD/svg11.dtd">
<svg xmlns="http://www.w3.org/2000/svg" version="1.1" width="335px" height="335px" style="shape-rendering:geometricPrecision; text-rendering:geometricPrecision; image-rendering:optimizeQuality; fill-rule:evenodd; clip-rule:evenodd" xmlns:xlink="http://www.w3.org/1999/xlink">
<g><path style="opacity:1" fill="#b47643" d="M 314.5,94.5 C 313.554,96.8895 312.221,99.0562 310.5,101C 305.833,103.667 301.167,106.333 296.5,109C 279.5,114.667 262.5,120.333 245.5,126C 231.789,130.602 219.955,138.102 210,148.5C 205.775,157.952 200.775,166.952 195,175.5C 181.76,188.21 166.593,198.043 149.5,205C 125.904,213.632 103.57,224.632 82.5,238C 66.2832,251.56 57.6166,268.727 56.5,289.5C 24.8931,260.953 7.0598,225.286 3,182.5C 0.065937,109.884 29.8993,55.7174 92.5,20C 154.024,-8.12543 212.357,-2.79209 267.5,36C 285.521,50.3588 300.355,67.5255 312,87.5C 313.411,89.6504 314.245,91.9837 314.5,94.5 Z"/></g>
<g><path style="opacity:0.991" fill="#fefefe" d="M 314.5,94.5 C 316.677,97.52 318.343,100.853 319.5,104.5C 315.028,107.573 310.361,110.407 305.5,113C 287.844,119.33 270.178,125.663 252.5,132C 241.74,136.791 231.907,142.957 223,150.5C 216.911,159.005 211.578,168.005 207,177.5C 196.303,189.602 183.803,199.435 169.5,207C 146.54,217.476 124.54,229.476 103.5,243C 77.3356,265.794 75.669,290.294 98.5,316.5C 82.8379,310.007 68.8379,301.007 56.5,289.5C 57.6166,268.727 66.2832,251.56 82.5,238C 103.57,224.632 125.904,213.632 149.5,205C 166.593,198.043 181.76,188.21 195,175.5C 200.775,166.952 205.775,157.952 210,148.5C 219.955,138.102 231.789,130.602 245.5,126C 262.5,120.333 279.5,114.667 296.5,109C 301.167,106.333 305.833,103.667 310.5,101C 312.221,99.0562 313.554,96.8895 314.5,94.5 Z"/></g>
<g><path style="opacity:1" fill="#11515d" d="M 319.5,104.5 C 321.403,107.53 322.737,110.863 323.5,114.5C 323.586,115.496 323.252,116.329 322.5,117C 302.978,126.174 282.978,134.174 262.5,141C 244.453,147.712 232.619,160.212 227,178.5C 222.462,189.047 215.629,197.88 206.5,205C 198.34,210.914 190.007,216.581 181.5,222C 167.008,229.412 152.674,237.079 138.5,245C 132.407,249.089 126.907,253.922 122,259.5C 116,268.167 116,276.833 122,285.5C 125.167,288.667 128.333,291.833 131.5,295C 142.692,301.762 153.359,309.262 163.5,317.5C 167.722,321.277 170.388,325.943 171.5,331.5C 149.208,333.003 127.542,329.503 106.5,321C 103.552,319.763 100.885,318.263 98.5,316.5C 75.669,290.294 77.3356,265.794 103.5,243C 124.54,229.476 146.54,217.476 169.5,207C 183.803,199.435 196.303,189.602 207,177.5C 211.578,168.005 216.911,159.005 223,150.5C 231.907,142.957 241.74,136.791 252.5,132C 270.178,125.663 287.844,119.33 305.5,113C 310.361,110.407 315.028,107.573 319.5,104.5 Z"/></g>
<g><path style="opacity:0.994" fill="#fefefe" d="M 323.5,114.5 C 324.632,118.019 325.632,121.686 326.5,125.5C 325.883,125.389 325.383,125.056 325,124.5C 310.92,131.622 296.42,137.789 281.5,143C 269.136,147.593 257.969,154.093 248,162.5C 243.072,168.598 240.072,175.598 239,183.5C 234.925,195.243 228.091,205.077 218.5,213C 199.176,226.666 179.176,239.333 158.5,251C 153.776,254.27 149.609,258.103 146,262.5C 143.812,266.16 143.478,269.826 145,273.5C 147.167,277 150,279.833 153.5,282C 170.104,290.302 186.771,298.636 203.5,307C 210.367,310.934 216.7,315.601 222.5,321C 223.448,321.483 224.448,321.649 225.5,321.5C 208.205,328.024 190.205,331.357 171.5,331.5C 170.388,325.943 167.722,321.277 163.5,317.5C 153.359,309.262 142.692,301.762 131.5,295C 128.333,291.833 125.167,288.667 122,285.5C 116,276.833 116,268.167 122,259.5C 126.907,253.922 132.407,249.089 138.5,245C 152.674,237.079 167.008,229.412 181.5,222C 190.007,216.581 198.34,210.914 206.5,205C 215.629,197.88 222.462,189.047 227,178.5C 232.619,160.212 244.453,147.712 262.5,141C 282.978,134.174 302.978,126.174 322.5,117C 323.252,116.329 323.586,115.496 323.5,114.5 Z"/></g>
<g><path style="opacity:1" fill="#10515c" d="M 326.5,125.5 C 343.475,207.045 316.475,269.545 245.5,313C 239.148,316.679 232.481,319.512 225.5,321.5C 224.448,321.649 223.448,321.483 222.5,321C 216.7,315.601 210.367,310.934 203.5,307C 186.771,298.636 170.104,290.302 153.5,282C 150,279.833 147.167,277 145,273.5C 143.478,269.826 143.812,266.16 146,262.5C 149.609,258.103 153.776,254.27 158.5,251C 179.176,239.333 199.176,226.666 218.5,213C 228.091,205.077 234.925,195.243 239,183.5C 240.072,175.598 243.072,168.598 248,162.5C 257.969,154.093 269.136,147.593 281.5,143C 296.42,137.789 310.92,131.622 325,124.5C 325.383,125.056 325.883,125.389 326.5,125.5 Z"/></g>
</svg>
