<?xml version="1.0" standalone="no"?>
<!DOCTYPE svg PUBLIC "-//W3C//DTD SVG 20010904//EN"
 "http://www.w3.org/TR/2001/REC-SVG-20010904/DTD/svg10.dtd">
<svg version="1.0" xmlns="http://www.w3.org/2000/svg"
 width="800.000000pt" height="800.000000pt" viewBox="0 0 800.000000 800.000000"
 preserveAspectRatio="xMidYMid meet">
<metadata>
Created by potrace 1.16, written by Peter Selinger 2001-2019
</metadata>
<g transform="translate(0.000000,800.000000) scale(0.100000,-0.100000)"
fill="#fff" stroke="none">
<path d="M3853 7890 c-471 -49 -957 -248 -1334 -545 -104 -82 -317 -293 -403
-400 -257 -319 -417 -638 -521 -1040 -46 -180 -66 -331 -66 -516 0 -153 1
-160 46 -334 71 -275 64 -355 -46 -564 -28 -51 -174 -300 -325 -552 -151 -252
-286 -484 -301 -516 -52 -113 -38 -209 36 -248 55 -28 203 -59 382 -80 104
-12 156 -67 146 -154 -3 -25 -26 -91 -50 -146 -54 -118 -62 -158 -48 -213 23
-85 111 -128 456 -224 l120 -33 -120 -8 c-66 -4 -137 -12 -157 -18 -83 -22
-132 -100 -109 -172 17 -49 47 -77 135 -121 88 -44 135 -86 138 -124 4 -58 -4
-97 -32 -152 -46 -91 -63 -164 -58 -245 18 -281 335 -447 724 -380 127 23 249
57 494 141 305 104 392 126 530 131 270 11 418 -87 583 -388 87 -159 239 -451
313 -602 116 -235 162 -287 251 -287 48 0 130 46 164 92 74 98 158 283 195
433 32 126 43 333 24 468 -65 479 -427 867 -899 962 -66 14 -117 16 -245 12
-219 -7 -265 -19 -686 -180 -233 -89 -314 -113 -440 -128 -208 -25 -364 30
-463 162 -46 61 -59 114 -67 266 -10 200 -23 225 -175 338 -145 107 -209 190
-241 310 -27 100 -10 230 39 304 73 109 185 181 327 207 119 23 492 15 677
-14 798 -126 1615 -520 2298 -1108 337 -291 600 -585 888 -994 116 -164 127
-177 182 -205 168 -86 364 38 368 234 2 71 -19 114 -131 274 -281 402 -746
914 -1093 1203 -552 461 -1183 815 -1804 1011 -473 149 -997 212 -1422 170
-194 -18 -357 -16 -416 6 -66 26 -100 73 -105 145 -7 104 44 198 207 382 158
177 203 253 209 347 6 82 -13 118 -128 258 -136 167 -175 254 -150 344 44 164
313 241 843 241 713 0 1380 -155 2082 -483 382 -178 705 -375 1164 -709 119
-87 245 -173 281 -190 60 -31 72 -33 165 -33 90 0 105 3 154 28 116 61 211
179 258 321 27 81 27 81 31 446 4 398 -4 545 -43 756 -134 724 -568 1352
-1207 1747 -279 173 -622 299 -958 352 -121 19 -537 29 -667 15z m632 -314
c378 -70 697 -204 997 -419 386 -277 691 -695 800 -1097 31 -114 33 -326 4
-410 -62 -182 -178 -290 -359 -336 -89 -23 -227 -14 -337 21 -94 30 -98 32
-440 207 -250 127 -362 178 -599 274 -403 163 -939 303 -1376 359 -225 29
-336 72 -438 170 -199 190 -196 481 8 728 208 253 675 466 1130 517 127 14
505 5 610 -14z"/>
<path d="M2609 5037 c-117 -44 -189 -143 -189 -258 0 -76 18 -125 67 -179 63
-70 115 -89 280 -101 723 -51 1524 -339 2252 -808 384 -247 700 -509 1098
-908 237 -239 272 -263 376 -263 126 0 201 79 226 240 5 36 12 211 14 390 5
362 2 388 -55 447 -69 72 -122 78 -295 31 -85 -22 -142 -31 -203 -32 -81 -1
-89 1 -160 39 -41 22 -183 120 -315 219 -654 486 -1151 761 -1738 962 -213 72
-388 120 -577 158 -289 58 -705 92 -781 63z"/>
</g>
</svg>
